<svg xmlns="http://www.w3.org/2000/svg" data-name="Layer 1" viewBox="0 0 100 125" x="0px" y="0px"><title>Artboard 5</title><path d="M23.7,79.54a6,6,0,0,0,6.54-1.3L36.49,72H70A10,10,0,0,0,80,62V30A10,10,0,0,0,70,20H30A10,10,0,0,0,20,30V74A6,6,0,0,0,23.7,79.54ZM26,66V30a4,4,0,0,1,4-4H70a4,4,0,0,1,4,4V62a4,4,0,0,1-4,4H34l-8,8Z"/><rect x="35" y="50" width="30" height="6"/><rect x="35" y="36" width="30" height="6"/><text x="0" y="115" fill="#000000" font-size="5px" font-weight="bold" font-family="'Helvetica Neue', Helvetica, Arial-Unicode, Arial, Sans-serif">Created by Gregor Cresnar</text><text x="0" y="120" fill="#000000" font-size="5px" font-weight="bold" font-family="'Helvetica Neue', Helvetica, Arial-Unicode, Arial, Sans-serif">from the Noun Project</text></svg>