<svg xmlns="http://www.w3.org/2000/svg" xmlns:xlink="http://www.w3.org/1999/xlink" version="1.2" baseProfile="tiny" x="0px" y="0px" viewBox="0 0 100 125" xml:space="preserve"><path d="M86.4348145,2.4999981H13.5651855c-1.6394653,0-2.96875,1.3292236-2.96875,2.96875v64.7727661  c0,0.7871094,0.3126221,1.5423584,0.869751,2.098999L35.7559204,96.630249C36.312561,97.1873779,37.067749,97.5,37.8549194,97.5  h48.579895c1.6395264,0,2.96875-1.3292847,2.96875-2.96875v-89.0625  C89.4035645,3.8292217,88.0743408,2.4999981,86.4348145,2.4999981z M34.8861694,87.3640137L20.7324219,73.2102661h14.1537476  V87.3640137z M83.4660645,91.5625h-42.642395V70.2415161c0-1.6394653-1.3292847-2.96875-2.96875-2.96875H16.5339355V8.4374981  h66.9321289V91.5625z"/><path d="M70.2415161,75.3691406H54.0482178c-1.6394653,0-2.96875,1.3292847-2.96875,2.96875  c0,1.6395264,1.3292847,2.96875,2.96875,2.96875h16.1932983c1.6394653,0,2.96875-1.3292236,2.96875-2.96875  C73.2102661,76.6984253,71.8809814,75.3691406,70.2415161,75.3691406z"/><path d="M29.7584839,40.8236084h24.2897339c1.6394653,0,2.96875-1.3292236,2.96875-2.96875  c0-1.6394653-1.3292847-2.96875-2.96875-2.96875H29.7584839c-1.6394653,0-2.96875,1.3292847-2.96875,2.96875  C26.7897339,39.4943848,28.1190186,40.8236084,29.7584839,40.8236084z"/><circle cx="70.2414246" cy="37.855072" r="4.0488162"/><path d="M29.7584839,57.0169678h24.2897339c1.6394653,0,2.96875-1.3292847,2.96875-2.96875  c0-1.6395264-1.3292847-2.96875-2.96875-2.96875H29.7584839c-1.6394653,0-2.96875,1.3292236-2.96875,2.96875  C26.7897339,55.6876831,28.1190186,57.0169678,29.7584839,57.0169678z"/><circle cx="70.2414246" cy="54.0482788" r="4.0488381"/><path d="M29.7584839,24.6307964h24.2897339c1.6394653,0,2.96875-1.3292847,2.96875-2.96875s-1.3292847-2.96875-2.96875-2.96875  H29.7584839c-1.6394653,0-2.96875,1.3292847-2.96875,2.96875S28.1190186,24.6307964,29.7584839,24.6307964z"/><circle cx="70.2414246" cy="21.6618938" r="4.0488162"/><text x="0" y="115" fill="#000000" font-size="5px" font-weight="bold" font-family="'Helvetica Neue', Helvetica, Arial-Unicode, Arial, Sans-serif">Created by Madalyn Jefferson</text><text x="0" y="120" fill="#000000" font-size="5px" font-weight="bold" font-family="'Helvetica Neue', Helvetica, Arial-Unicode, Arial, Sans-serif">from the Noun Project</text></svg>