<svg xmlns="http://www.w3.org/2000/svg" xmlns:xlink="http://www.w3.org/1999/xlink" version="1.1" x="0px" y="0px" viewBox="0 0 100 125" style="enable-background:new 0 0 100 100;" xml:space="preserve"><path d="M71.55,56.55l-4.16-4.16c-0.41-0.41-1.06-0.41-1.47,0L49.26,69.04c-0.19,0.2-0.3,0.46-0.3,0.74v4.16  c0,0.58,0.47,1.04,1.04,1.04h4.16c0.28,0,0.54-0.11,0.74-0.3l16.65-16.65C71.96,57.61,71.96,56.96,71.55,56.55z M53.73,72.9h-2.69  V70.2l11.45-11.45l2.69,2.69L53.73,72.9z M66.65,59.98l-2.69-2.69l2.69-2.69l2.69,2.69L66.65,59.98z"/><path d="M28.14,32.31v39.55c0,1.72,1.4,3.12,3.12,3.12h14.57c0.58,0,1.04-0.47,1.04-1.04s-0.47-1.04-1.04-1.04H31.27  c-0.57,0-1.04-0.47-1.04-1.04V32.31c0-0.57,0.47-1.04,1.04-1.04h5.2v1.04c0,0.58,0.47,1.04,1.04,1.04h18.73  c0.58,0,1.04-0.47,1.04-1.04v-1.04h5.2c0.57,0,1.04,0.47,1.04,1.04V50c0,0.58,0.47,1.04,1.04,1.04s1.04-0.47,1.04-1.04V32.31  c0-1.72-1.4-3.12-3.12-3.12h-5.4c-0.43-1.21-1.58-2.08-2.93-2.08h-3.69c-0.73-1.27-2.1-2.08-3.59-2.08s-2.86,0.81-3.59,2.08h-3.69  c-1.35,0-2.5,0.87-2.93,2.08h-5.4C29.55,29.19,28.14,30.59,28.14,32.31z M39.59,29.19h4.35c0.44,0,0.83-0.28,0.98-0.69  c0.29-0.83,1.08-1.39,1.95-1.39s1.66,0.56,1.95,1.39c0.15,0.42,0.54,0.69,0.98,0.69h4.35c0.57,0,1.04,0.47,1.04,1.04v1.04H38.55  v-1.04C38.55,29.65,39.02,29.19,39.59,29.19z"/><text x="0" y="115" fill="#000000" font-size="5px" font-weight="bold" font-family="'Helvetica Neue', Helvetica, Arial-Unicode, Arial, Sans-serif">Created by creative_visionary</text><text x="0" y="120" fill="#000000" font-size="5px" font-weight="bold" font-family="'Helvetica Neue', Helvetica, Arial-Unicode, Arial, Sans-serif">from the Noun Project</text></svg>