<svg xmlns="http://www.w3.org/2000/svg" xmlns:xlink="http://www.w3.org/1999/xlink" version="1.1" x="0px" y="0px" viewBox="0 0 55 68.75" style="enable-background:new 0 0 55 55;" xml:space="preserve"><g><path d="M27.5,15.5c-6.6171875,0-12,5.3828125-12,12s5.3828125,12,12,12s12-5.3828125,12-12S34.1171875,15.5,27.5,15.5z M27.5,37.5   c-5.5136719,0-10-4.4863281-10-10s4.4863281-10,10-10s10,4.4863281,10,10S33.0136719,37.5,27.5,37.5z"/><path d="M49.5,23.5l-2.9375-0.0166016c-0.4951172-2.3691406-1.4179688-4.5986328-2.7539063-6.6357422l2.0751953-2.0751953   c0.3779297-0.3769531,0.5869141-0.8789063,0.5869141-1.4130859c0-0.5351563-0.2080078-1.0380859-0.5859375-1.4160156   l-2.828125-2.828125c-0.7802734-0.7802734-2.0507813-0.7792969-2.8291016,0l-2.0869141,2.0634766   C36.1152344,9.8554688,33.8867188,8.9335938,31.5,8.4394531V5.5c0-1.1025391-0.8974609-2-2-2h-4c-1.1025391,0-2,0.8974609-2,2   l-0.0166016,2.9375c-2.3701172,0.4960938-4.5986328,1.4179688-6.6347656,2.7539063l-2.0761719-2.0761719   c-0.7792969-0.7792969-2.0498047-0.7792969-2.8291016,0l-2.828125,2.828125   c-0.3779297,0.3779297-0.5859375,0.8808594-0.5859375,1.4160156c0,0.5341797,0.2089844,1.0361328,0.5859375,1.4121094   l2.0634766,2.0869141C9.8554688,18.8847656,8.9326172,21.1142578,8.4394531,23.5H5.5c-1.1025391,0-2,0.8974609-2,2v4   c0,1.1025391,0.8974609,2,2,2l2.9375,0.0166016c0.4970703,2.3720703,1.4189453,4.6005859,2.7539063,6.6357422l-2.0761719,2.0751953   c-0.7802734,0.7802734-0.7802734,2.0488281,0,2.8291016l2.828125,2.828125c0.7792969,0.7802734,2.0498047,0.7783203,2.8291016,0   l2.0869141-2.0634766c2.0253906,1.3232422,4.2539063,2.2451172,6.640625,2.7392578V49.5c0,1.1025391,0.8974609,2,2,2h4   c1.1025391,0,2-0.8974609,2-2l0.0166016-2.9375c2.3701172-0.4960938,4.5986328-1.4179688,6.6347656-2.7539063l2.0761719,2.0761719   c0.7783203,0.7783203,2.0488281,0.7802734,2.8291016,0l2.828125-2.828125c0.7802734-0.7802734,0.7802734-2.0488281,0-2.8291016   l-2.0634766-2.0859375c1.3222656-2.0244141,2.2441406-4.2529297,2.7392578-6.6416016H49.5c1.1025391,0,2-0.8974609,2-2v-4   C51.5,24.3974609,50.6025391,23.5,49.5,23.5z M49.5,29.5h-2.9394531c-0.9521484,0-1.7558594,0.6601563-1.9550781,1.6064453   c-0.4462891,2.1269531-1.2734375,4.1259766-2.4580078,5.9414063c-0.5283203,0.8076172-0.4267578,1.8427734,0.2470703,2.5185547   l2.0761719,2.0761719l-2.8291016,2.828125l-2.0761719-2.0761719c-0.6728516-0.6738281-1.7070313-0.7744141-2.5185547-0.2470703   c-1.8164063,1.1855469-3.8144531,2.0126953-5.9414063,2.4580078C30.1601563,44.8046875,29.5,45.6083984,29.5,46.5605469V49.5h-4   v-2.9394531c0-0.9521484-0.6601563-1.7558594-1.6064453-1.9550781c-2.1259766-0.4453125-4.1240234-1.2724609-5.9414063-2.4589844   c-0.3457031-0.2255859-0.7324219-0.3359375-1.1152344-0.3359375c-0.5126953,0-1.0166016,0.1982422-1.4023438,0.5839844   l-2.0771484,2.0761719l-2.828125-2.8291016l2.0771484-2.0761719c0.6728516-0.6748047,0.7744141-1.7099609,0.2460938-2.5175781   c-1.1845703-1.8154297-2.0117188-3.8144531-2.4580078-5.9423828C10.1953125,30.1601563,9.3916016,29.5,8.4394531,29.5H5.5v-4   h2.9394531c0.9521484,0,1.7558594-0.6601563,1.9550781-1.6064453c0.4453125-2.125,1.2724609-4.1240234,2.4580078-5.9414063   c0.5205078-0.7958984,0.4169922-1.8554688-0.2470703-2.5185547l-2.0761719-2.0761719l2.8291016-2.828125l2.0761719,2.0761719   c0.6748047,0.6748047,1.7080078,0.7753906,2.5185547,0.2470703c1.8164063-1.1855469,3.8144531-2.0126953,5.9414063-2.4580078   C24.8398438,10.1953125,25.5,9.3916016,25.5,8.4394531V5.5h4v2.9394531c0,0.9521484,0.6601563,1.7558594,1.6064453,1.9550781   c2.1259766,0.4453125,4.1240234,1.2724609,5.9414063,2.4589844c0.8095703,0.5283203,1.8447266,0.4267578,2.5175781-0.2480469   l2.0771484-2.0761719l2.828125,2.828125l-2.0761719,2.0761719c-0.6640625,0.6630859-0.7675781,1.7226563-0.2470703,2.5185547   c1.1855469,1.8173828,2.0126953,3.8164063,2.4580078,5.9423828C44.8046875,24.8398438,45.6083984,25.5,46.5605469,25.5H49.5V29.5z"/></g><text x="0" y="70" fill="#000000" font-size="5px" font-weight="bold" font-family="'Helvetica Neue', Helvetica, Arial-Unicode, Arial, Sans-serif">Created by DinosoftLabs</text><text x="0" y="75" fill="#000000" font-size="5px" font-weight="bold" font-family="'Helvetica Neue', Helvetica, Arial-Unicode, Arial, Sans-serif">from the Noun Project</text></svg>