<svg xmlns="http://www.w3.org/2000/svg" version="1.1" viewBox="-5.0 -10.0 110.0 135.0">
 <path d="m86.645 73.684c0.09375 0.61328-0.29688 1.1953-0.89844 1.3438-0.60156 0.14844-1.2188-0.1875-1.4219-0.77344-0.14062-0.58203-0.69531-0.96484-1.2891-0.89453-0.59375 0.074219-1.0391 0.58203-1.0352 1.1797 0 0.86328 0.72656 1.0352 1.4531 1.2109 1.6484 0.39062 3.3008 0.78516 3.3008 3.5391 0 1.5117-0.95312 2.8594-2.375 3.3672v0.14453c0 0.66016-0.53906 1.1992-1.1992 1.1992-0.66406 0-1.1992-0.53906-1.1992-1.1992v-0.14844c-1.1289-0.40625-1.9766-1.3477-2.2695-2.5078-0.15234-0.64062 0.23828-1.2812 0.87891-1.4375 0.63672-0.16016 1.2812 0.23047 1.4414 0.86719 0.14453 0.57812 0.69922 0.95312 1.2891 0.88281 0.58984-0.074219 1.0312-0.57422 1.0352-1.168 0-0.86328-0.72656-1.0352-1.4531-1.2109-1.6484-0.39453-3.3008-0.78516-3.3008-3.5391 0-1.5117 0.94922-2.8594 2.375-3.3633v-0.14453c0-0.66406 0.53516-1.2031 1.1992-1.2031 0.66016 0 1.1992 0.53906 1.1992 1.2031v0.14453c0.35938 0.12891 0.69922 0.31641 1 0.55469 0.62891 0.49219 1.0742 1.1797 1.2695 1.9531zm3.1992-3.4336h0.003906c-3.1797-3.1797-8.1641-3.668-11.898-1.1719-3.7383 2.5-5.1914 7.2891-3.4688 11.441 1.7188 4.1562 6.1328 6.5117 10.543 5.6367 4.4102-0.87891 7.582-4.7461 7.582-9.2422 0.003906-2.5-0.98828-4.8984-2.7578-6.6641zm-3.1797-4.6328v-35.219h-7.5508v35.414c2.4297-0.88672 5.0781-0.95703 7.5508-0.19922zm-14.898 8.2305-64.367-0.003906v6.0938h64.352c-0.52344-1.9961-0.51953-4.0977 0.011719-6.0938zm-9.582-2.3984 7.5469-0.003907v-33.574h-7.5469zm-16.934 0 7.5508-0.003907v-20.102h-7.5547v20.102zm-16.934 0h7.5508v-26.102l-7.5508-0.003906zm-16.934 0h7.5508v-13.348h-7.5508zm61.293 10.887c1.707 3.3086 4.8789 5.6211 8.5547 6.2344 3.6758 0.60938 7.4258-0.54297 10.117-3.1211 2.6914-2.5742 4.0117-6.2695 3.5625-9.9688-0.45312-3.6992-2.6211-6.9688-5.8516-8.8242v-37.457c0-0.66016-0.53516-1.1992-1.1992-1.1992h-9.9414c-0.66406 0-1.1992 0.53906-1.1992 1.1992v37.816c-1.6953 1.1094-3.0781 2.6367-4.0195 4.4336h-0.57031v-34.777c0-0.66406-0.53516-1.1992-1.1992-1.1992h-9.9453c-0.66406 0-1.1992 0.53516-1.1992 1.1992v34.777h-4.5938v-21.297c0-0.66016-0.53516-1.1992-1.1992-1.1992h-9.9414c-0.66406 0-1.1992 0.53906-1.1992 1.1992v21.297h-4.5898v-27.301c0-0.66406-0.53906-1.1992-1.2031-1.1992h-9.9414c-0.66406 0-1.1992 0.53516-1.1992 1.1992v27.301h-4.5938v-14.551c0-0.66016-0.53516-1.1992-1.1992-1.1992h-9.9414c-0.66406 0-1.1992 0.53906-1.1992 1.1992v14.551h-2.7852c-0.66016 0-1.1992 0.53516-1.1992 1.1992v8.4922c0 0.66016 0.53906 1.1992 1.1992 1.1992zm-39.781-50.73c0.38281 0.38672 0.44141 0.98828 0.14062 1.4375-0.30078 0.45312-0.88281 0.62891-1.3828 0.41797-0.5-0.20703-0.78516-0.74219-0.67969-1.2734 0.10938-0.53516 0.57812-0.91406 1.1211-0.91406 0.30078 0 0.58984 0.12109 0.80078 0.33203zm16.934 8.4531v0.003906c0.38281 0.38281 0.44141 0.98438 0.14062 1.4336-0.30469 0.45312-0.88281 0.62891-1.3828 0.41797-0.5-0.20703-0.78516-0.74219-0.67578-1.2734 0.10547-0.53125 0.57422-0.91406 1.1172-0.91406 0.30078 0.003907 0.58594 0.12109 0.80078 0.33594zm16.934-16.801v0.003907c-0.38672-0.38281-0.98828-0.44531-1.4375-0.14062-0.45312 0.30078-0.625 0.87891-0.41797 1.3789 0.20703 0.50391 0.74219 0.78516 1.2734 0.67969 0.53125-0.10938 0.91406-0.57422 0.91406-1.1172 0-0.30078-0.12109-0.58984-0.33203-0.80078zm-50.672 19.547c0.38281 0.38672 0.44141 0.98828 0.14062 1.4375-0.30078 0.45312-0.87891 0.625-1.3828 0.41797-0.5-0.21094-0.78516-0.74219-0.67578-1.2734 0.10547-0.53516 0.57422-0.91406 1.1172-0.91406 0.30078 0 0.58984 0.12109 0.80078 0.33203zm-0.80078-2.7305v0.003906c0.75781 0 1.4961 0.24609 2.1016 0.69922l11.27-7.5156c-0.25-1.0195-0.035156-2.0938 0.58203-2.9375 0.62109-0.84375 1.582-1.3672 2.625-1.4336 1.0469-0.066406 2.0664 0.33594 2.7852 1.0938 0.71875 0.76172 1.0664 1.8008 0.94531 2.8398l10.988 5.4844c1.0586-1.0117 2.6328-1.2617 3.957-0.63281l12.211-12.117c-0.70703-1.5117-0.25391-3.3164 1.082-4.3164 1.3359-1.0039 3.1914-0.93359 4.4492 0.16797l18.594-6.7539-2.3984-1.1094h-0.003907c-0.53906-0.30859-0.75-0.97656-0.49219-1.543 0.26172-0.5625 0.90625-0.83594 1.4922-0.62891l5.0391 2.3242c0.59766 0.27734 0.85547 0.98828 0.58203 1.5859l-2.3281 5.0391h0.003907c-0.12891 0.29688-0.37109 0.52734-0.67188 0.64062-0.30078 0.11719-0.63281 0.10547-0.92578-0.027344-0.29297-0.13672-0.51953-0.38281-0.625-0.6875-0.10938-0.30078-0.089843-0.63672 0.050781-0.92578l1.125-2.4375-18.277 6.6406c0.19922 1.293-0.33594 2.5898-1.3867 3.3711s-2.4453 0.91797-3.625 0.35547l-12.211 12.117c0.46484 1.0039 0.4375 2.168-0.082031 3.1484-0.51953 0.97656-1.4688 1.6562-2.5586 1.832-1.0938 0.17578-2.207-0.17187-3.0078-0.9375-0.80078-0.76562-1.1953-1.8633-1.0625-2.9648l-10.988-5.4844c-1.2422 1.1875-3.1602 1.3086-4.543 0.28516l-11.27 7.5117c0.29688 1.1992-0.054688 2.4688-0.92969 3.3477-0.83594 0.83203-2.0312 1.1953-3.1875 0.96484s-2.125-1.0195-2.5742-2.1133c-0.45313-1.0898-0.33203-2.332 0.32422-3.3125 0.65625-0.98047 1.7578-1.5703 2.9375-1.5703z" fill-rule="evenodd"/>
<text x="0.0" y="117.5" font-size="5.0" font-weight="bold" font-family="Arbeit Regular, Helvetica, Arial-Unicode, Arial, Sans-serif" fill="#000000">Created by wahyu eko prasetyo</text><text x="0.0" y="122.5" font-size="5.0" font-weight="bold" font-family="Arbeit Regular, Helvetica, Arial-Unicode, Arial, Sans-serif" fill="#000000">from Noun Project</text></svg>