<svg xmlns="http://www.w3.org/2000/svg" viewBox="0 0 32 40" x="0px" y="0px"><path d="m13.224,18.934l10.06,10.06c.76.76,1.78,1.18,2.85,1.18,1.08,0,2.1-.42,2.86-1.18.75-.76,1.17-1.77,1.18-2.86-.01-1.08-.43-2.1-1.18-2.85l-10.06-10.06c.98-3.1.17-6.5-2.16-8.83-2.07-2.07-5.02-2.97-7.9-2.4-.36.08-.65.34-.76.69-.11.36-.01.74.25,1l3.83,3.83c.5.51.7,1.24.52,1.93l-.39,1.46c-.19.69-.73,1.23-1.42,1.42l-1.46.39c-.69.18-1.43-.01-1.93-.52l-3.83-3.83c-.26-.26-.64-.35-1-.25-.35.11-.62.4-.69.76-.57,2.88.33,5.83,2.4,7.9,2.33,2.33,5.73,3.14,8.83,2.16Zm-5.9-4.1c.25.25.62.35.96.26l4.81-1.29c.35-.09.62-.36.71-.71l1.29-4.8c.09-.35-.01-.72-.26-.97l-3.45-3.45c1.48.18,2.89.84,3.98,1.93,1.92,1.92,2.5,4.79,1.48,7.31-.14.37-.06.8.23,1.08l10.5,10.51c.38.38.59.89.6,1.43-.01.55-.22,1.06-.6,1.44-.76.77-2.11.77-2.87,0l-10.51-10.5c-.19-.2-.45-.3-.71-.3-.12,0-.25.03-.37.08-2.52,1.01-5.39.43-7.31-1.49-1.09-1.09-1.75-2.49-1.93-3.98l3.45,3.45Z"/><path d="m26.821,26.822c.337-.337.337-.882,0-1.219-.337-.337-.882-.337-1.219,0-.337.337-.337.882,0,1.219s.882.337,1.219,0Z"/><text x="0" y="47" fill="#000000" font-size="5px" font-weight="bold" font-family="'Helvetica Neue', Helvetica, Arial-Unicode, Arial, Sans-serif">Created by Kiki Rizky</text><text x="0" y="52" fill="#000000" font-size="5px" font-weight="bold" font-family="'Helvetica Neue', Helvetica, Arial-Unicode, Arial, Sans-serif">from the Noun Project</text></svg>