<svg xmlns="http://www.w3.org/2000/svg" xmlns:xlink="http://www.w3.org/1999/xlink" xmlns:serif="http://www.serif.com/" viewBox="0 0 48 60" version="1.1" xml:space="preserve" style="" x="0px" y="0px" fill-rule="evenodd" clip-rule="evenodd" stroke-linejoin="round" stroke-miterlimit="2"><g transform="matrix(1,0,0,1,-16,-16)"><g transform="matrix(1.13158,0,0,1.13158,-5.26316,-1.87826)"><path d="M30,23.884L50,23.884C50.488,23.884 50.884,23.488 50.884,23C50.884,22.512 50.488,22.116 50,22.116L30,22.116C29.512,22.116 29.116,22.512 29.116,23C29.116,23.488 29.512,23.884 30,23.884Z"/></g><path d="M23.158,27.66L19.5,27.66C18.395,27.66 17.5,28.555 17.5,29.66L17.5,59.298C17.5,60.403 18.395,61.298 19.5,61.298L60.5,61.298C61.605,61.298 62.5,60.403 62.5,59.298L62.5,34.833C62.5,34.302 62.289,33.794 61.914,33.419C61.539,33.044 61.03,32.833 60.5,32.833L56.842,32.833L56.842,20.702C56.842,19.597 55.947,18.702 54.842,18.702C50.099,18.702 29.901,18.702 25.158,18.702C24.627,18.702 24.119,18.912 23.744,19.287C23.369,19.662 23.158,20.171 23.158,20.702L23.158,27.66ZM29.428,29.66L34.512,34.309C34.881,34.646 35.362,34.833 35.862,34.833L60.5,34.833L60.5,59.298C60.5,59.298 19.5,59.298 19.5,59.298L19.5,29.66L29.428,29.66ZM54.842,32.833L54.842,20.702C54.842,20.702 25.158,20.702 25.158,20.702L25.158,27.66L29.428,27.66C29.927,27.66 30.408,27.847 30.777,28.184L31.457,28.806L51.316,28.806C51.868,28.806 52.316,29.254 52.316,29.806C52.316,30.358 51.868,30.806 51.316,30.806L33.645,30.806L35.862,32.833L54.842,32.833Z"/><g transform="matrix(0.942982,0,0,1.13158,-0.171053,-7.53615)"><path d="M24,36.884L30,36.884C30.585,36.884 31.06,36.488 31.06,36C31.06,35.512 30.585,35.116 30,35.116L24,35.116C23.415,35.116 22.94,35.512 22.94,36C22.94,36.488 23.415,36.884 24,36.884Z"/></g></g><text x="0" y="63" fill="#000000" font-size="5px" font-weight="bold" font-family="'Helvetica Neue', Helvetica, Arial-Unicode, Arial, Sans-serif">Created by UnikonSolution</text><text x="0" y="68" fill="#000000" font-size="5px" font-weight="bold" font-family="'Helvetica Neue', Helvetica, Arial-Unicode, Arial, Sans-serif">from the Noun Project</text></svg>