<svg xmlns="http://www.w3.org/2000/svg" data-name="Layer 29" viewBox="0 0 64 80" x="0px" y="0px"><path d="m56.01,39.05c-.52-.18-1.09.1-1.27.63-3.31,9.76-12.44,16.32-22.74,16.32-12.11,0-22.15-9.02-23.77-20.69l.97,1.29c.2.26.5.4.8.4.21,0,.42-.07.6-.2.44-.33.53-.96.2-1.4l-3-4s-.03-.02-.04-.03c-.18-.22-.45-.37-.76-.37s-.57.15-.76.37c-.01.01-.03.02-.04.03l-3,4c-.33.44-.24,1.07.2,1.4.44.33,1.07.24,1.4-.2l1.35-1.8c1.4,13.03,12.46,23.2,25.85,23.2,11.15,0,21.05-7.1,24.63-17.68.18-.52-.1-1.09-.63-1.27Z"/><path d="m60.6,27.2c-.44-.33-1.07-.24-1.4.2l-1.35,1.8c-1.4-13.03-12.46-23.2-25.85-23.2-11.15,0-21.05,7.1-24.63,17.68-.18.52.1,1.09.63,1.27.11.04.21.05.32.05.42,0,.81-.26.95-.68,3.31-9.76,12.44-16.32,22.74-16.32,12.11,0,22.15,9.02,23.77,20.69l-.97-1.29c-.33-.44-.96-.53-1.4-.2-.44.33-.53.96-.2,1.4l3,4s.03.02.05.04c.07.08.15.14.23.2.03.02.06.05.1.07.13.06.27.1.42.1s.29-.04.42-.1c.04-.02.06-.05.1-.07.09-.06.17-.12.23-.2.01-.02.03-.02.05-.04l3-4c.33-.44.24-1.07-.2-1.4Z"/><path d="m32,50c9.92,0,18-8.08,18-18s-8.08-18-18-18-18,8.08-18,18,8.07,18,18,18Zm0-34c8.82,0,16,7.18,16,16s-7.18,16-16,16-16-7.18-16-16,7.18-16,16-16Z"/><path d="m30.2,33h3.6c1.32,0,2.4,1.08,2.4,2.4v1c0,1.32-1.08,2.4-2.4,2.4h-3.5c-1.32,0-2.4-1.08-2.4-2.4,0-.55-.45-1-1-1s-1,.45-1,1c0,2.43,1.97,4.4,4.4,4.4h.7v2.25c0,.55.45,1,1,1s1-.45,1-1v-2.25h.8c2.43,0,4.4-1.97,4.4-4.4v-1c0-2.43-1.97-4.4-4.4-4.4h-3.6c-1.32,0-2.4-1.08-2.4-2.4v-1c0-1.32,1.08-2.4,2.4-2.4h3.5c1.32,0,2.4,1.08,2.4,2.4,0,.55.45,1,1,1s1-.45,1-1c0-2.43-1.97-4.4-4.4-4.4h-.7v-2.25c0-.55-.45-1-1-1s-1,.45-1,1v2.25h-.8c-2.43,0-4.4,1.97-4.4,4.4v1c0,2.43,1.97,4.4,4.4,4.4Z"/><text x="0" y="79" fill="#000000" font-size="5px" font-weight="bold" font-family="'Helvetica Neue', Helvetica, Arial-Unicode, Arial, Sans-serif">Created by Yosua Bungaran</text><text x="0" y="84" fill="#000000" font-size="5px" font-weight="bold" font-family="'Helvetica Neue', Helvetica, Arial-Unicode, Arial, Sans-serif">from the Noun Project</text></svg>