<svg xmlns="http://www.w3.org/2000/svg" version="1.1" viewBox="-5.0 -10.0 110.0 135.0">
 <g>
  <path d="m78.125 40.625h-12.5c-0.85938 0-1.5625 0.70312-1.5625 1.5625v25c0 7.75-6.3125 14.062-14.062 14.062s-14.062-6.3125-14.062-14.062v-25c0-0.85938-0.70312-1.5625-1.5625-1.5625h-12.5c-0.85938 0-1.5625 0.70312-1.5625 1.5625v25c0 16.375 13.312 29.688 29.688 29.688s29.688-13.312 29.688-29.688v-25c0-0.85938-0.70312-1.5625-1.5625-1.5625zm-54.688 3.125h9.375v6.25h-9.375zm53.125 23.438c0 14.641-11.922 26.562-26.562 26.562s-26.562-11.922-26.562-26.562v-14.062h9.375v14.062c0 9.4844 7.7031 17.188 17.188 17.188s17.188-7.7031 17.188-17.188v-14.062h9.375zm0-17.188h-9.375v-6.25h9.375z"/>
  <path d="m71.875 3.125c-9.4844 0-17.188 7.7031-17.188 17.188 0 4.2969 1.5938 8.2344 4.2188 11.25 0.03125 0.03125 0.046875 0.0625 0.078125 0.09375h0.03125c3.1562 3.5625 7.75 5.8281 12.875 5.8281s9.7188-2.2656 12.875-5.8281h0.03125c0.03125-0.03125 0.046875-0.0625 0.078125-0.09375 2.625-3.0156 4.2188-6.9531 4.2188-11.25 0-9.4844-7.7031-17.188-17.188-17.188zm0 31.25c-3.7656 0-7.1875-1.5-9.7031-3.9062 2.6094-2.4844 6.0781-3.9062 9.7031-3.9062s7.0938 1.4062 9.7031 3.9062c-2.5312 2.4219-5.9375 3.9062-9.7031 3.9062zm11.719-6.3125c-3.1719-2.9531-7.3594-4.625-11.719-4.625s-8.5469 1.6719-11.719 4.625c-1.4688-2.2188-2.3438-4.8906-2.3438-7.75 0-7.75 6.3125-14.062 14.062-14.062s14.062 6.3125 14.062 14.062c0 2.8594-0.85938 5.5312-2.3438 7.75z"/>
  <path d="m71.875 9.375c-3.4531 0-6.25 2.7969-6.25 6.25s2.7969 6.25 6.25 6.25 6.25-2.7969 6.25-6.25-2.7969-6.25-6.25-6.25zm0 9.375c-1.7188 0-3.125-1.4062-3.125-3.125s1.4062-3.125 3.125-3.125 3.125 1.4062 3.125 3.125-1.4062 3.125-3.125 3.125z"/>
  <path d="m41 31.672h0.03125c0.03125-0.03125 0.046875-0.0625 0.078125-0.09375 2.625-3.0156 4.2188-6.9531 4.2188-11.25 0-9.4844-7.7031-17.188-17.188-17.188s-17.203 7.6875-17.203 17.172c0 4.2969 1.5938 8.2344 4.2188 11.25 0.03125 0.03125 0.046875 0.0625 0.078125 0.09375h0.03125c3.1562 3.5625 7.75 5.8281 12.875 5.8281s9.7188-2.2656 12.875-5.8281zm-24.594-3.6094c-1.4688-2.2188-2.3438-4.8906-2.3438-7.75 0-7.75 6.3125-14.062 14.062-14.062s14.062 6.3125 14.062 14.062c0 2.8594-0.85938 5.5312-2.3438 7.75-3.1719-2.9531-7.3594-4.625-11.719-4.625s-8.5469 1.6719-11.719 4.625zm11.719-1.5c3.625 0 7.0938 1.4062 9.7031 3.9062-2.5312 2.4219-5.9375 3.9062-9.7031 3.9062s-7.1875-1.5-9.7031-3.9062c2.6094-2.4844 6.0781-3.9062 9.7031-3.9062z"/>
  <path d="m34.375 15.625c0-3.4531-2.7969-6.25-6.25-6.25s-6.25 2.7969-6.25 6.25 2.7969 6.25 6.25 6.25 6.25-2.7969 6.25-6.25zm-9.375 0c0-1.7188 1.4062-3.125 3.125-3.125s3.125 1.4062 3.125 3.125-1.4062 3.125-3.125 3.125-3.125-1.4062-3.125-3.125z"/>
  <path d="m43.938 47.609c0.26562 0.51562 0.79688 0.82812 1.375 0.82812h6.4531l-4.625 6.9531c-0.48438 0.71875-0.28125 1.6875 0.4375 2.1719 0.26562 0.17188 0.5625 0.26562 0.85938 0.26562 0.5 0 1-0.25 1.2969-0.70312l6.25-9.375c0.3125-0.48438 0.34375-1.0938 0.078125-1.6094s-0.79688-0.82812-1.375-0.82812h-6.4531l4.625-6.9531c0.48438-0.71875 0.28125-1.6875-0.4375-2.1719s-1.6875-0.28125-2.1719 0.4375l-6.25 9.375c-0.3125 0.48438-0.34375 1.0938-0.078125 1.6094z"/>
 </g>
<text x="0.0" y="117.5" font-size="5.0" font-weight="bold" font-family="Arbeit Regular, Helvetica, Arial-Unicode, Arial, Sans-serif" fill="#000000">Created by Roat Studio</text><text x="0.0" y="122.5" font-size="5.0" font-weight="bold" font-family="Arbeit Regular, Helvetica, Arial-Unicode, Arial, Sans-serif" fill="#000000">from Noun Project</text></svg>