<svg xmlns="http://www.w3.org/2000/svg" version="1.1" viewBox="-5.0 -10.0 110.0 135.0">
 <g>
  <path d="m58.031 40.281h-15.062c-0.69141 0-1.25 0.55859-1.25 1.25s0.55859 1.25 1.25 1.25h15.059c0.69141 0 1.25-0.55859 1.25-1.25 0.003906-0.69141-0.55859-1.25-1.2461-1.25z"/>
  <path d="m58.031 49.102h-15.062c-0.69141 0-1.25 0.55859-1.25 1.25 0 0.69141 0.55859 1.25 1.25 1.25h15.059c0.69141 0 1.25-0.55859 1.25-1.25 0.003906-0.69141-0.55859-1.25-1.2461-1.25z"/>
  <path d="m49.91 57.922h-6.9414c-0.69141 0-1.25 0.55859-1.25 1.25s0.55859 1.25 1.25 1.25h6.9414c0.69141 0 1.25-0.55859 1.25-1.25s-0.55859-1.25-1.25-1.25z"/>
  <path d="m40.379 23.68c-0.69141 0-1.25 0.55859-1.25 1.25v3.8203h-0.92188c-2.8906 0-5.25 2.3594-5.25 5.25l0.003907 32.699c0 2.8906 2.3594 5.25 5.25 5.25h24.59c2.8906 0 5.25-2.3594 5.25-5.25v-32.711c0-2.8906-2.3594-5.25-5.25-5.25h-0.92188v-3.8203c0-0.69141-0.55859-1.25-1.25-1.25s-1.25 0.55859-1.25 1.25v3.8203h-4.25v-3.8203c0-0.69141-0.55859-1.25-1.25-1.25s-1.25 0.55859-1.25 1.25v3.8203h-4.25v-3.8203c0-0.69141-0.55859-1.25-1.25-1.25s-1.25 0.55859-1.25 1.25v3.8203h-4.25v-3.8203c0-0.67969-0.55859-1.2383-1.25-1.2383zm25.172 10.309v32.711c0 1.5195-1.2305 2.75-2.75 2.75h-24.59c-1.5195 0-2.75-1.2305-2.75-2.75v-32.711c0-1.5195 1.2305-2.75 2.75-2.75h24.59c1.5078 0 2.75 1.2422 2.75 2.75z"/>
 </g>
<text x="0.0" y="117.5" font-size="5.0" font-weight="bold" font-family="Arbeit Regular, Helvetica, Arial-Unicode, Arial, Sans-serif" fill="#000000">Created by creative_visionary</text><text x="0.0" y="122.5" font-size="5.0" font-weight="bold" font-family="Arbeit Regular, Helvetica, Arial-Unicode, Arial, Sans-serif" fill="#000000">from Noun Project</text></svg>