<svg xmlns="http://www.w3.org/2000/svg" version="1.1" viewBox="-5.0 -10.0 110.0 135.0">
 <path d="m91.668 70.832c0 11.508-9.3281 20.836-20.836 20.836h-41.664c-11.508 0-20.836-9.3281-20.836-20.836v-41.664c0-11.508 9.3281-20.836 20.836-20.836h41.664c11.508 0 20.836 9.3281 20.836 20.836zm-20.836 12.5c6.9062 0 12.5-5.5938 12.5-12.5v-41.664c0-6.9062-5.5938-12.5-12.5-12.5h-41.664c-6.9062 0-12.5 5.5938-12.5 12.5v41.664c0 6.9062 5.5938 12.5 12.5 12.5zm-35.449-50.883c-1.3828 2.1523-2.0508 4.25-2.0508 6.3516 0 1 0.41016 1.9492 1.3359 2.8477 0.87109 0.85156 1.8945 1.3008 3.1797 1.3008 2.1523 0 3.5352-1.25 4.3594-3.75 1.332-4.1992 5.0742-6.5 8.0508-6.5508 4.6641-0.097657 7.6406 2.0508 7.6406 5.6016 0 0.89844-0.20703 1.75-0.66797 2.5-0.46094 0.75-0.97266 1.4492-1.6406 2.1016-0.48828 0.51172-1.2617 1.1836-2.2734 2.0586-0.26953 0.23047-0.55469 0.47656-0.85547 0.73828-1.6914 1.4023-2.9727 2.6523-3.9492 3.6523-0.97266 1-1.793 2.1992-2.3594 3.5508-0.5625 1.3477-0.87109 2.9492-0.87109 4.7969 0 1.5 0.35938 2.6016 1.1797 3.3516 0.82031 0.75 1.7969 1.1016 2.9766 1.1016 2.2539 0 3.6406-1.1523 4.0508-3.4531 0.12891-0.52344 0.24219-0.97266 0.33984-1.3477 0.09375-0.375 0.17188-0.67578 0.22266-0.90234 0.085938-0.37891 0.24609-0.72266 0.41797-1.0898 0.03125-0.070313 0.0625-0.13672 0.09375-0.20703 0.20703-0.40234 0.56641-0.90234 1.0273-1.4023 0.46094-0.5 1.0781-1.0977 1.8477-1.8008 0.3125-0.26953 0.67578-0.57031 1.0703-0.89844 3.082-2.5508 8.1602-6.75 8.1602-12.602 0-6.9492-4.8203-10.449-7.3359-11.648-2.5117-1.1484-5.3828-1.75-8.6641-1.75-3.5391 0-6.6172 0.69922-9.2305 2.1016-2.668 1.3984-4.668 3.1992-6.0547 5.3477zm10.875 41.25c1.0234 0.85156 2.2031 1.3008 3.5898 1.3008 1.332 0 2.5117-0.44922 3.4844-1.3008 1.0273-0.89844 1.5391-2.0977 1.5391-3.6484 0-1.4023-0.46094-2.5508-1.4336-3.5-0.97656-0.94922-2.1562-1.4023-3.5898-1.4023-1.4375 0-2.668 0.45312-3.6406 1.4023-0.97656 0.94922-1.4883 2.0977-1.4883 3.5 0 1.5508 0.51172 2.8008 1.5391 3.6484z" fill-rule="evenodd"/>
<text x="0.0" y="117.5" font-size="5.0" font-weight="bold" font-family="Arbeit Regular, Helvetica, Arial-Unicode, Arial, Sans-serif" fill="#000000">Created by Helmi Salam Said</text><text x="0.0" y="122.5" font-size="5.0" font-weight="bold" font-family="Arbeit Regular, Helvetica, Arial-Unicode, Arial, Sans-serif" fill="#000000">from Noun Project</text></svg>