<svg xmlns="http://www.w3.org/2000/svg" xmlns:xlink="http://www.w3.org/1999/xlink" xmlns:serif="http://www.serif.com/" viewBox="0 0 321 401.25" version="1.1" xml:space="preserve" style="" x="0px" y="0px" fill-rule="evenodd" clip-rule="evenodd" stroke-linejoin="round" stroke-miterlimit="2"><g transform="matrix(1,0,0,1,-2993.53,-2243.7)"><g transform="matrix(1.26555,0,0,1,1997.85,623.275)"><g transform="matrix(0.761162,0,0,0.963289,-2065.43,-709.581)"><path d="M3836,2497.78L3784.93,2497.78C3769.82,2497.78 3757.57,2510.03 3757.57,2525.14L3757.57,2683.55C3757.57,2698.66 3769.82,2710.91 3784.93,2710.91L4041.64,2710.91C4056.76,2710.91 4069,2698.66 4069,2683.55L4069,2525.14C4069,2510.03 4056.76,2497.78 4041.64,2497.78L3990.57,2497.78L3990.57,2487.78C3990.57,2471.87 3977.68,2458.97 3961.77,2458.97L3864.81,2458.97C3848.9,2458.97 3836,2471.87 3836,2487.78L3836,2497.78ZM3769,2562.73L3769,2683.55C3769,2692.35 3776.13,2699.48 3784.93,2699.48L4041.64,2699.48C4050.44,2699.48 4057.57,2692.35 4057.57,2683.55L4057.57,2562.73L3945.93,2612.75L3945.93,2635.51C3945.93,2645.91 3937.5,2654.33 3927.11,2654.33C3918.71,2654.33 3907.86,2654.33 3899.47,2654.33C3889.07,2654.33 3880.65,2645.91 3880.65,2635.51L3880.65,2612.75L3769,2562.73ZM3934.49,2617.87L3924.14,2622.51C3917.24,2625.6 3909.34,2625.6 3902.43,2622.51L3892.08,2617.87L3892.08,2635.51C3892.08,2639.59 3895.39,2642.9 3899.47,2642.9C3899.47,2642.9 3927.11,2642.9 3927.11,2642.9C3931.19,2642.9 3934.49,2639.59 3934.49,2635.51L3934.49,2617.87ZM4057.57,2550.2L4057.57,2525.14C4057.57,2516.34 4050.44,2509.21 4041.64,2509.21C4041.59,2509.21 3784.93,2509.21 3784.93,2509.21C3776.13,2509.21 3769,2516.34 3769,2525.14L3769,2550.2L3907.11,2612.08C3911.04,2613.84 3915.54,2613.84 3919.47,2612.08L4057.57,2550.2ZM3979.14,2497.78L3979.14,2487.78C3979.14,2478.18 3971.36,2470.4 3961.77,2470.4C3961.77,2470.4 3864.81,2470.4 3864.81,2470.4C3855.21,2470.4 3847.43,2478.18 3847.43,2487.78L3847.43,2497.78L3979.14,2497.78Z"/></g></g><g transform="matrix(1.26555,0,0,1,1997.85,623.275)"><g transform="matrix(0.748095,0,0,0.946752,-1398.83,-306.404)"><rect x="2921.54" y="2035.2" width="338.081" height="338.081" style="" fill="none"/></g></g></g><text x="0" y="336" fill="#000000" font-size="5px" font-weight="bold" font-family="'Helvetica Neue', Helvetica, Arial-Unicode, Arial, Sans-serif">Created by Gha Arizal</text><text x="0" y="341" fill="#000000" font-size="5px" font-weight="bold" font-family="'Helvetica Neue', Helvetica, Arial-Unicode, Arial, Sans-serif">from the Noun Project</text></svg>