<svg xmlns="http://www.w3.org/2000/svg" viewBox="0 0 81 126.25" fill="none" x="0px" y="0px"><path fill-rule="evenodd" clip-rule="evenodd" d="M80.6816 3.53516C80.6816 1.8783 79.3385 0.535156 77.6816 0.535156H3.68164C2.02479 0.535156 0.681641 1.8783 0.681641 3.53515V97.5352C0.681641 99.192 2.02479 100.535 3.68164 100.535H77.6816C79.3385 100.535 80.6816 99.192 80.6816 97.5352V3.53516ZM9.64074 6.89265C7.98388 6.89265 6.64074 8.2358 6.64074 9.89266V91.1777C6.64074 92.8345 7.98388 94.1777 9.64074 94.1777H71.7225C73.3794 94.1777 74.7225 92.8345 74.7225 91.1777V9.89265C74.7225 8.2358 73.3794 6.89265 71.7225 6.89265H9.64074Z" fill="black"/><path d="M27.1628 47.3563C26.0583 47.3563 25.1628 48.2518 25.1628 49.3563V51.7138C25.1628 52.8184 26.0583 53.7138 27.1628 53.7138H54.7974C55.902 53.7138 56.7974 52.8184 56.7974 51.7138V49.3563C56.7974 48.2518 55.902 47.3563 54.7974 47.3563H27.1628Z" fill="black"/><path d="M27.1628 29.1436C26.0583 29.1436 25.1628 30.039 25.1628 31.1436V33.5011C25.1628 34.6056 26.0583 35.5011 27.1628 35.5011H54.7974C55.902 35.5011 56.7974 34.6056 56.7974 33.5011V31.1436C56.7974 30.039 55.902 29.1436 54.7974 29.1436H27.1628Z" fill="black"/><path d="M27.1628 65.5691C26.0583 65.5691 25.1628 66.4645 25.1628 67.5691V69.9266C25.1628 71.0312 26.0583 71.9266 27.1628 71.9266H54.7974C55.902 71.9266 56.7974 71.0312 56.7974 69.9266V67.5691C56.7974 66.4645 55.902 65.5691 54.7974 65.5691H27.1628Z" fill="black"/><text x="0" y="116" fill="#000000" font-size="5px" font-weight="bold" font-family="'Helvetica Neue', Helvetica, Arial-Unicode, Arial, Sans-serif">Created by Aquasec</text><text x="0" y="121" fill="#000000" font-size="5px" font-weight="bold" font-family="'Helvetica Neue', Helvetica, Arial-Unicode, Arial, Sans-serif">from the Noun Project</text></svg>