<svg xmlns="http://www.w3.org/2000/svg" version="1.1" viewBox="-5.0 -10.0 110.0 135.0">
 <g>
  <path d="m50 47.656c6.0312 0 10.938-4.9062 10.938-10.938s-4.9062-10.938-10.938-10.938-10.938 4.9062-10.938 10.938 4.9062 10.938 10.938 10.938zm0-18.75c4.3125 0 7.8125 3.5 7.8125 7.8125s-3.5 7.8125-7.8125 7.8125-7.8125-3.5-7.8125-7.8125 3.5-7.8125 7.8125-7.8125z"/>
  <path d="m50 52.344c-11.203 0-20.312 9.1094-20.312 20.312 0 0.85938 0.70312 1.5625 1.5625 1.5625s1.5625-0.70312 1.5625-1.5625c0-9.4844 7.7031-17.188 17.188-17.188s17.188 7.7031 17.188 17.188c0 0.85938 0.70312 1.5625 1.5625 1.5625s1.5625-0.70312 1.5625-1.5625c0-11.203-9.1094-20.312-20.312-20.312z"/>
  <path d="m25 50.188c5.1719 0 9.375-4.2031 9.375-9.375s-4.2031-9.375-9.375-9.375-9.375 4.2031-9.375 9.375 4.2031 9.375 9.375 9.375zm0-15.625c3.4531 0 6.25 2.7969 6.25 6.25s-2.7969 6.25-6.25 6.25-6.25-2.7969-6.25-6.25 2.7969-6.25 6.25-6.25z"/>
  <path d="m32.172 56.797c0.3125-0.79688-0.078125-1.7031-0.875-2.0312-2-0.78125-4.125-1.1875-6.2812-1.1875-9.4844 0-17.188 7.7031-17.188 17.188 0 0.85938 0.70312 1.5625 1.5625 1.5625s1.5625-0.70312 1.5625-1.5625c0-7.75 6.3125-14.062 14.062-14.062 1.7812 0 3.5 0.32812 5.1406 0.96875 0.79688 0.3125 1.7031-0.078125 2.0312-0.875z"/>
  <path d="m75 50.188c5.1719 0 9.375-4.2031 9.375-9.375s-4.2031-9.375-9.375-9.375-9.375 4.2031-9.375 9.375 4.2031 9.375 9.375 9.375zm0-15.625c3.4531 0 6.25 2.7969 6.25 6.25s-2.7969 6.25-6.25 6.25-6.25-2.7969-6.25-6.25 2.7969-6.25 6.25-6.25z"/>
  <path d="m75 53.578c-2.1719 0-4.2812 0.40625-6.2812 1.1875-0.79688 0.3125-1.2031 1.2188-0.875 2.0312 0.3125 0.79688 1.2188 1.2031 2.0312 0.875 1.6406-0.64062 3.3594-0.96875 5.1406-0.96875 7.75 0 14.062 6.3125 14.062 14.062 0 0.85938 0.70312 1.5625 1.5625 1.5625s1.5625-0.70312 1.5625-1.5625c0-9.4844-7.7031-17.188-17.188-17.188z"/>
 </g>
<text x="0.0" y="117.5" font-size="5.0" font-weight="bold" font-family="Arbeit Regular, Helvetica, Arial-Unicode, Arial, Sans-serif" fill="#000000">Created by Yosua Bungaran</text><text x="0.0" y="122.5" font-size="5.0" font-weight="bold" font-family="Arbeit Regular, Helvetica, Arial-Unicode, Arial, Sans-serif" fill="#000000">from Noun Project</text></svg>