<svg xmlns="http://www.w3.org/2000/svg" xmlns:xlink="http://www.w3.org/1999/xlink" version="1.1" x="0px" y="0px" viewBox="0 0 24 30" style="enable-background:new 0 0 24 24;" xml:space="preserve"><g><path d="M16.4,2H7.6C4.5,2,2,4.5,2,7.6v8.9C2,19.5,4.5,22,7.6,22h8.9c3.1,0,5.6-2.5,5.6-5.6V7.6C22,4.5,19.5,2,16.4,2z M20,16.4   c0,2-1.6,3.6-3.6,3.6H7.6c-2,0-3.6-1.6-3.6-3.6V7.6C4,5.6,5.6,4,7.6,4h8.9c2,0,3.6,1.6,3.6,3.6V16.4z"/><rect x="7" y="10" width="2" height="7"/><rect x="15" y="13" width="2" height="4"/><rect x="11" y="7" width="2" height="10"/></g><text x="0" y="39" fill="#000000" font-size="5px" font-weight="bold" font-family="'Helvetica Neue', Helvetica, Arial-Unicode, Arial, Sans-serif">Created by Mas Dhimas</text><text x="0" y="44" fill="#000000" font-size="5px" font-weight="bold" font-family="'Helvetica Neue', Helvetica, Arial-Unicode, Arial, Sans-serif">from the Noun Project</text></svg>