<svg xmlns="http://www.w3.org/2000/svg" viewBox="0 0 48 60" x="0px" y="0px"><path d="M24,4A20,20,0,1,0,44,24,20,20,0,0,0,24,4Zm0,36A16,16,0,1,1,40,24,16,16,0,0,1,24,40Z"/><rect x="22" y="32" width="4" height="4"/><path d="M24,12a7,7,0,0,0-7,7h4a3,3,0,1,1,3,3,2,2,0,0,0-2,2v4h4V25.71A7,7,0,0,0,24,12Z"/><text x="0" y="63" fill="#000000" font-size="5px" font-weight="bold" font-family="'Helvetica Neue', Helvetica, Arial-Unicode, Arial, Sans-serif">Created by Martin Sturk</text><text x="0" y="68" fill="#000000" font-size="5px" font-weight="bold" font-family="'Helvetica Neue', Helvetica, Arial-Unicode, Arial, Sans-serif">from the Noun Project</text></svg>