<svg xmlns="http://www.w3.org/2000/svg" xmlns:xlink="http://www.w3.org/1999/xlink" version="1.1" x="0px" y="0px" viewBox="0 0 500 625" style="enable-background:new 0 0 500 500;" xml:space="preserve"><path d="M331,187h-72c-4.97,0-9,4.03-9,9c0,4.97,4.03,9,9,9h63v13.81c-5.48,3.16-10.04,7.72-13.2,13.2  c-9.93,17.22-4.02,39.24,13.2,49.17V295H178v-13.81c5.48-3.16,10.04-7.72,13.2-13.2c9.93-17.22,4.02-39.24-13.2-49.17V205h36v63  c0,4.97,4.03,9,9,9s9-4.03,9-9v-72c0-4.97-4.03-9-9-9h-54c-4.97,0-9,4.03-9,9v28.53c0,3.82,2.4,7.22,6,8.5  c5.12,1.81,9.14,5.84,10.96,10.96c3.32,9.37-1.58,19.67-10.96,22.99c-3.6,1.27-6.01,4.68-6,8.5V304c0,4.97,4.03,9,9,9h162  c4.97,0,9-4.03,9-9v-28.54c0-3.82-2.41-7.22-6-8.49c-5.12-1.81-9.14-5.84-10.96-10.96c-3.32-9.37,1.58-19.67,10.96-22.99  c3.6-1.27,6.01-4.68,6-8.5V196C340,191.03,335.97,187,331,187z"/><text x="0" y="515" fill="#000000" font-size="5px" font-weight="bold" font-family="'Helvetica Neue', Helvetica, Arial-Unicode, Arial, Sans-serif">Created by Graphic Elements</text><text x="0" y="520" fill="#000000" font-size="5px" font-weight="bold" font-family="'Helvetica Neue', Helvetica, Arial-Unicode, Arial, Sans-serif">from the Noun Project</text></svg>