<svg xmlns="http://www.w3.org/2000/svg" xmlns:xlink="http://www.w3.org/1999/xlink" version="1.1" x="0px" y="0px" viewBox="0 0 96 120" style="enable-background:new 0 0 96 96;" xml:space="preserve"><path d="M40.699,47.153c0,2.901,3.208,5.261,7.151,5.261c5.232,0,9.488,3.409,9.488,7.598c0,3.873-3.637,7.076-8.32,7.539v2.044  c0,0.645-0.523,1.169-1.169,1.169s-1.169-0.523-1.169-1.169V67.55c-4.682-0.463-8.32-3.666-8.32-7.539  c0-0.645,0.523-1.169,1.169-1.169c0.645,0,1.169,0.523,1.169,1.169c0,2.901,3.208,5.261,7.151,5.261s7.151-2.36,7.151-5.261  c0-2.901-3.208-5.261-7.151-5.261c-5.232,0-9.488-3.409-9.488-7.598c0-3.873,3.637-7.076,8.32-7.539v-2.496  c0-0.645,0.523-1.169,1.169-1.169s1.169,0.523,1.169,1.169v2.496c4.682,0.463,8.32,3.666,8.32,7.539  c0,0.645-0.523,1.169-1.169,1.169c-0.645,0-1.169-0.523-1.169-1.169c0-2.901-3.208-5.261-7.151-5.261S40.699,44.252,40.699,47.153z   M59.411,32.055c0.281-0.581,0.037-1.28-0.544-1.561c-3.451-1.666-7.157-2.51-11.016-2.51c-13.99,0-25.372,11.382-25.372,25.371  c0,13.99,11.382,25.372,25.372,25.372c13.99,0,25.371-11.382,25.371-25.372c0-0.645-0.523-1.169-1.169-1.169  c-0.645,0-1.169,0.523-1.169,1.169c0,12.701-10.333,23.034-23.034,23.034S24.816,66.057,24.816,53.356  c0-12.701,10.333-23.034,23.034-23.034c3.504,0,6.869,0.766,10,2.278C58.431,32.88,59.13,32.637,59.411,32.055z M82.121,35.81  c-0.583,0.277-0.831,0.974-0.554,1.557c2.382,5.014,3.59,10.393,3.59,15.988c0,20.571-16.736,37.306-37.306,37.306  S10.544,73.927,10.544,53.356c0-20.571,16.736-37.306,37.306-37.306c2.631,0,5.259,0.275,7.809,0.818  c0.632,0.134,1.252-0.268,1.387-0.9c0.135-0.631-0.268-1.252-0.9-1.387c-2.71-0.577-5.501-0.87-8.296-0.87  c-21.86,0-39.644,17.784-39.644,39.644C8.206,75.216,25.99,93,47.85,93s39.644-17.784,39.644-39.644  c0-5.945-1.284-11.662-3.816-16.992C83.401,35.781,82.704,35.533,82.121,35.81z M87.562,23.71L72.453,3.47  C72.232,3.174,71.885,3,71.516,3c-0.369,0-0.716,0.174-0.937,0.47L55.471,23.71c-0.265,0.354-0.306,0.828-0.108,1.223  c0.198,0.395,0.602,0.645,1.045,0.645h8.139c-0.204,5.239-1.778,10.31-4.584,14.731c-0.346,0.545-0.184,1.267,0.361,1.613  c0.545,0.346,1.267,0.184,1.613-0.361c3.252-5.125,4.97-11.056,4.97-17.153c0-0.645-0.523-1.169-1.169-1.169h-7L71.516,6.123  l12.778,17.118h-7c-0.645,0-1.169,0.523-1.169,1.169c0,11.862-5.112,23.162-14.026,31.003c-0.485,0.426-0.532,1.165-0.106,1.65  c0.231,0.263,0.554,0.397,0.878,0.397c0.274,0,0.55-0.096,0.772-0.291c9.125-8.027,14.48-19.484,14.804-31.589h8.178  c0.442,0,0.847-0.25,1.045-0.645C87.868,24.538,87.826,24.065,87.562,23.71z"/><text x="0" y="111" fill="#000000" font-size="5px" font-weight="bold" font-family="'Helvetica Neue', Helvetica, Arial-Unicode, Arial, Sans-serif">Created by miftahul huda</text><text x="0" y="116" fill="#000000" font-size="5px" font-weight="bold" font-family="'Helvetica Neue', Helvetica, Arial-Unicode, Arial, Sans-serif">from the Noun Project</text></svg>