<svg xmlns="http://www.w3.org/2000/svg" version="1.1" viewBox="-5.0 -10.0 110.0 135.0">
 <path d="m16.352 92.219h52.352c6.2188 0 11.281-5.0586 11.281-11.281v-4.2305h3.6719c6.2188 0 11.281-5.0586 11.281-11.281l-0.007812-38.645c0-6.2188-5.0586-11.281-11.281-11.281h-25.102l-4.3203-5.1914c-1.3281-1.6016-3.3008-2.5312-5.3789-2.5312h-17.551c-6.2188 0-11.281 5.0586-11.281 11.281v11.949h-3.6719c-6.2188 0-11.281 5.0586-11.281 11.281v38.66c0 6.2188 5.0586 11.281 11.281 11.281zm10.668-73.16c0-2.3594 1.9219-4.2812 4.2812-4.2812h17.551l6.4219 7.7188h28.391c0.89063 0 1.7109 0.26953 2.3906 0.73047 0.67969 0.46094 1.2305 1.1094 1.5508 1.8789 0.21875 0.51172 0.33984 1.0703 0.33984 1.6602v38.66c0 1.4805-0.75 2.7812-1.8906 3.5508-0.67969 0.46094-1.5117 0.73047-2.3906 0.73047l-52.363 0.003907c-2.3594 0-4.2812-1.9219-4.2812-4.2812zm-14.949 23.23c0-2.3594 1.9219-4.2812 4.2812-4.2812h3.6719v27.422c0 6.2188 5.0586 11.281 11.281 11.281h41.68v4.2305c0 2.3594-1.9219 4.2812-4.2812 4.2812l-52.352-0.003906c-2.3594 0-4.2812-1.9219-4.2812-4.2812v-38.66z"/>
<text x="0.0" y="117.5" font-size="5.0" font-weight="bold" font-family="Arbeit Regular, Helvetica, Arial-Unicode, Arial, Sans-serif" fill="#000000">Created by Jerry Cannary</text><text x="0.0" y="122.5" font-size="5.0" font-weight="bold" font-family="Arbeit Regular, Helvetica, Arial-Unicode, Arial, Sans-serif" fill="#000000">from Noun Project</text></svg>